<?xml version="1.0" encoding="UTF-8"?>
<svg width="24px" height="24px" viewBox="0 0 24 24" version="1.1" xmlns="http://www.w3.org/2000/svg" xmlns:xlink="http://www.w3.org/1999/xlink">
    <!-- Generator: Sketch 58 (84663) - https://sketch.com -->
    <title>Shape</title>
    <desc>Created with Sketch.</desc>
    <g id="07032020" stroke="none" stroke-width="1" fill="none" fill-rule="evenodd">
        <g id="owomida-overview-all-accounts" transform="translate(-264.000000, -306.000000)" fill="#FFFFFF" fill-rule="nonzero">
            <g id="Group-6" transform="translate(16.000000, 174.000000)">
                <g id="Group-4" transform="translate(0.000000, 48.000000)">
                    <g id="Group-14" transform="translate(0.000000, 20.000000)">
                        <g id="Group-8-Copy-4" transform="translate(0.000000, 32.000000)">
                            <path d="M260,53.6 C254.708,53.6 250.4,49.292 250.4,44 C250.4,38.708 254.708,34.4 260,34.4 C265.292,34.4 269.6,38.708 269.6,44 C269.6,49.292 265.292,53.6 260,53.6 M260,56 C266.624,56 272,50.624 272,44 C272,37.376 266.624,32 260,32 C253.376,32 248,37.376 248,44 C248,50.624 253.376,56 260,56 L260,56 Z M258.8,44 L258.8,47.6 C258.8,48.26 259.34,48.8 260,48.8 L260,48.8 C260.66,48.8 261.2,48.26 261.2,47.6 L261.2,44 L263.348,44 C263.888,44 264.152,43.352 263.768,42.98 L260.42,39.632 C260.18,39.392 259.808,39.392 259.568,39.632 L256.22,42.98 C255.848,43.352 256.112,44 256.652,44 L258.8,44 Z" id="Shape"></path>
                        </g>
                    </g>
                </g>
            </g>
        </g>
    </g>
</svg>